<?xml version="1.0" encoding="UTF-8" standalone="no"?>
<svg width="1200" height="300" viewBox="0 0 1200 300" xmlns="http://www.w3.org/2000/svg">
  <!-- Foreground pattern with silhouettes -->
  
  <!-- Ground -->
  <rect x="0" y="200" width="1200" height="100" fill="#adb5bd" />
  
  <!-- Grass tufts -->
  <g opacity="0.7" fill="#6c757d">
    <path d="M50,200 C80,160 100,180 120,200" stroke-width="2" stroke="#6c757d" fill="none" />
    <path d="M150,200 C180,150 200,170 220,200" stroke-width="2" stroke="#6c757d" fill="none" />
    <path d="M250,200 C280,170 300,180 320,200" stroke-width="2" stroke="#6c757d" fill="none" />
    <path d="M350,200 C380,160 400,170 420,200" stroke-width="2" stroke="#6c757d" fill="none" />
    <path d="M450,200 C480,150 500,180 520,200" stroke-width="2" stroke="#6c757d" fill="none" />
    <path d="M550,200 C580,160 600,170 620,200" stroke-width="2" stroke="#6c757d" fill="none" />
    <path d="M650,200 C680,150 700,180 720,200" stroke-width="2" stroke="#6c757d" fill="none" />
    <path d="M750,200 C780,160 800,170 820,200" stroke-width="2" stroke="#6c757d" fill="none" />
    <path d="M850,200 C880,150 900,180 920,200" stroke-width="2" stroke="#6c757d" fill="none" />
    <path d="M950,200 C980,160 1000,170 1020,200" stroke-width="2" stroke="#6c757d" fill="none" />
    <path d="M1050,200 C1080,150 1100,180 1120,200" stroke-width="2" stroke="#6c757d" fill="none" />
  </g>
  
  <!-- Distant Trees -->
  <g opacity="0.8">
    <!-- Tree 1 -->
    <ellipse cx="100" cy="180" rx="20" ry="30" fill="#495057" />
    <rect x="95" y="190" width="10" height="20" fill="#343a40" />
    
    <!-- Tree 2 -->
    <ellipse cx="300" cy="175" rx="25" ry="35" fill="#495057" />
    <rect x="294" y="190" width="12" height="20" fill="#343a40" />
    
    <!-- Tree 3 -->
    <ellipse cx="500" cy="180" rx="18" ry="28" fill="#495057" />
    <rect x="496" y="190" width="8" height="15" fill="#343a40" />
    
    <!-- Tree 4 -->
    <ellipse cx="700" cy="170" rx="22" ry="32" fill="#495057" />
    <rect x="695" y="185" width="10" height="20" fill="#343a40" />
    
    <!-- Tree 5 -->
    <ellipse cx="900" cy="180" rx="20" ry="30" fill="#495057" />
    <rect x="895" y="190" width="10" height="20" fill="#343a40" />
    
    <!-- Tree 6 -->
    <ellipse cx="1100" cy="175" rx="25" ry="35" fill="#495057" />
    <rect x="1094" y="190" width="12" height="20" fill="#343a40" />
  </g>
  
  <!-- Hills in the foreground -->
  <path d="M0,200 Q300,150 600,200 Q900,250 1200,200 L1200,300 L0,300 Z" fill="#6c757d" opacity="0.5" />
</svg>