<?xml version="1.0" encoding="UTF-8" standalone="no"?>
<svg width="800" height="200" viewBox="0 0 800 200" xmlns="http://www.w3.org/2000/svg">
  <!-- Foreground elements pattern -->
  
  <!-- Foreground base -->
  <rect width="100%" height="100%" fill="transparent" />
  
  <!-- Grass/plants silhouettes -->
  <g fill="#4acea3" opacity="0.6">
    <!-- Grass clump 1 -->
    <path d="M50,200 C50,180 45,170 40,160 C35,170 30,180 30,200 Z" />
    <path d="M60,200 C60,170 55,160 50,150 C45,160 40,170 40,200 Z" />
    <path d="M70,200 C70,180 65,170 60,160 C55,170 50,180 50,200 Z" />
    
    <!-- Grass clump 2 -->
    <path d="M120,200 C120,180 115,170 110,160 C105,170 100,180 100,200 Z" />
    <path d="M130,200 C130,170 125,160 120,150 C115,160 110,170 110,200 Z" />
    <path d="M140,200 C140,180 135,170 130,160 C125,170 120,180 120,200 Z" />
    
    <!-- Grass clump 3 -->
    <path d="M250,200 C250,180 245,170 240,160 C235,170 230,180 230,200 Z" />
    <path d="M260,200 C260,170 255,160 250,150 C245,160 240,170 240,200 Z" />
    <path d="M270,200 C270,180 265,170 260,160 C255,170 250,180 250,200 Z" />
    
    <!-- Grass clump 4 -->
    <path d="M390,200 C390,180 385,170 380,160 C375,170 370,180 370,200 Z" />
    <path d="M400,200 C400,170 395,160 390,150 C385,160 380,170 380,200 Z" />
    <path d="M410,200 C410,180 405,170 400,160 C395,170 390,180 390,200 Z" />
    
    <!-- Grass clump 5 -->
    <path d="M520,200 C520,180 515,170 510,160 C505,170 500,180 500,200 Z" />
    <path d="M530,200 C530,170 525,160 520,150 C515,160 510,170 510,200 Z" />
    <path d="M540,200 C540,180 535,170 530,160 C525,170 520,180 520,200 Z" />
    
    <!-- Grass clump 6 -->
    <path d="M650,200 C650,180 645,170 640,160 C635,170 630,180 630,200 Z" />
    <path d="M660,200 C660,170 655,160 650,150 C645,160 640,170 640,200 Z" />
    <path d="M670,200 C670,180 665,170 660,160 C655,170 650,180 650,200 Z" />
    
    <!-- Grass clump 7 -->
    <path d="M750,200 C750,180 745,170 740,160 C735,170 730,180 730,200 Z" />
    <path d="M760,200 C760,170 755,160 750,150 C745,160 740,170 740,200 Z" />
    <path d="M770,200 C770,180 765,170 760,160 C755,170 750,180 750,200 Z" />
  </g>
  
  <!-- Scattered flowers -->
  <g>
    <!-- Flower 1 -->
    <circle cx="80" cy="150" r="4" fill="#f47b7b" />
    <circle cx="83" cy="146" r="4" fill="#f47b7b" />
    <circle cx="77" cy="146" r="4" fill="#f47b7b" />
    <circle cx="83" cy="154" r="4" fill="#f47b7b" />
    <circle cx="77" cy="154" r="4" fill="#f47b7b" />
    <circle cx="80" cy="150" r="3" fill="#ffd15c" />
    
    <!-- Flower 2 -->
    <circle cx="300" cy="160" r="4" fill="#f47b7b" />
    <circle cx="303" cy="156" r="4" fill="#f47b7b" />
    <circle cx="297" cy="156" r="4" fill="#f47b7b" />
    <circle cx="303" cy="164" r="4" fill="#f47b7b" />
    <circle cx="297" cy="164" r="4" fill="#f47b7b" />
    <circle cx="300" cy="160" r="3" fill="#ffd15c" />
    
    <!-- Flower 3 -->
    <circle cx="480" cy="155" r="4" fill="#f47b7b" />
    <circle cx="483" cy="151" r="4" fill="#f47b7b" />
    <circle cx="477" cy="151" r="4" fill="#f47b7b" />
    <circle cx="483" cy="159" r="4" fill="#f47b7b" />
    <circle cx="477" cy="159" r="4" fill="#f47b7b" />
    <circle cx="480" cy="155" r="3" fill="#ffd15c" />
    
    <!-- Flower 4 -->
    <circle cx="700" cy="165" r="4" fill="#f47b7b" />
    <circle cx="703" cy="161" r="4" fill="#f47b7b" />
    <circle cx="697" cy="161" r="4" fill="#f47b7b" />
    <circle cx="703" cy="169" r="4" fill="#f47b7b" />
    <circle cx="697" cy="169" r="4" fill="#f47b7b" />
    <circle cx="700" cy="165" r="3" fill="#ffd15c" />
  </g>
</svg>