<?xml version="1.0" encoding="UTF-8" standalone="no"?>
<svg width="1200" height="400" viewBox="0 0 1200 400" xmlns="http://www.w3.org/2000/svg">
  <!-- Horizon pattern with gentle hills and distant objects -->
  
  <!-- Sky gradient -->
  <defs>
    <linearGradient id="skyGradient" x1="0%" y1="0%" x2="0%" y2="100%">
      <stop offset="0%" stop-color="#f5f7fa" stop-opacity="0" />
      <stop offset="100%" stop-color="#f5f7fa" stop-opacity="0.5" />
    </linearGradient>
  </defs>
  
  <!-- Sky background -->
  <rect width="100%" height="100%" fill="url(#skyGradient)" />
  
  <!-- Distant mountains -->
  <path d="M0,400 L0,280 Q100,250 200,270 Q300,290 400,260 Q500,230 600,250 Q700,270 800,240 Q900,210 1000,240 Q1100,270 1200,250 L1200,400 Z" 
        fill="#e7e9ec" 
        opacity="0.6" />
  
  <!-- Middle ground -->
  <path d="M0,400 L0,300 Q150,280 300,310 Q450,340 600,300 Q750,260 900,300 Q1050,340 1200,310 L1200,400 Z" 
        fill="#dee2e6" 
        opacity="0.7" />
  
  <!-- Foreground -->
  <path d="M0,400 L0,330 Q200,320 400,350 Q600,380 800,340 Q1000,300 1200,350 L1200,400 Z" 
        fill="#ced4da" 
        opacity="0.8" />
</svg>